<?xml version="1.0" encoding="utf-8"?>
<!-- Generator: Adobe Illustrator 27.9.4, SVG Export Plug-In . SVG Version: 9.03 Build 54784)  -->
<svg version="1.1" id="Laag_1" xmlns="http://www.w3.org/2000/svg" xmlns:xlink="http://www.w3.org/1999/xlink" x="0px" y="0px"
	 viewBox="0 0 323.31 93.82" style="enable-background:new 0 0 323.31 93.82;" xml:space="preserve">
<style type="text/css">
	.st0{fill:#34B298;}
	.st1{fill:#2C3E50;}
	.st2{fill:#FFFFFF;}
</style>
<path class="st0" d="M12.41,90.7h299.9c4.44,0,8.04-3.6,8.04-8.04V48.05H4.38v34.61C4.38,87.1,7.97,90.7,12.41,90.7z"/>
<path class="st1" d="M320.41,11.32c0-4.44-3.6-8.04-8.04-8.04H12.47c-4.44,0-8.04,3.6-8.04,8.04v37.02c-0.02,0-0.04,0-0.06,0.01
	v1.98c27.84,2.54,86.9,4.31,157.99,4.31c71.09,0,130.14-1.77,157.99-4.31v-0.95h0.06V11.32z"/>
<g>
	<path class="st2" d="M40.87,16.26h-3.82c-0.54,0-0.87,0.26-0.98,0.78l-4.27,18.17h-0.16l-4.27-18.17
		c-0.11-0.52-0.43-0.78-0.98-0.78h-3.82c-0.73,0-1,0.28-0.81,0.85l6.3,22.13c0.11,0.52,0.45,0.78,1.02,0.78h5.32
		c0.51,0,0.84-0.26,0.98-0.78l6.3-22.13C41.82,16.55,41.54,16.26,40.87,16.26z"/>
	<path class="st2" d="M58.76,21.18h-9.39c-2.14,0-3.79,0.52-4.96,1.55c-1.17,1.03-1.75,2.52-1.75,4.47v6.8
		c0,1.95,0.58,3.44,1.75,4.47c1.16,1.03,2.82,1.55,4.96,1.55h0.98c0.84,0,1.64-0.17,2.4-0.5c0.76-0.33,1.29-0.83,1.58-1.5h0.16v1.22
		c0,0.52,0.28,0.78,0.85,0.78h3.41c0.59,0,0.89-0.26,0.89-0.78V21.95C59.66,21.44,59.36,21.18,58.76,21.18z M54.5,33.15
		c0,1.87-0.93,2.81-2.8,2.81h-1.5c-0.87,0-1.48-0.17-1.83-0.5c-0.35-0.33-0.53-0.89-0.53-1.68v-6.35c0-0.79,0.18-1.35,0.53-1.68
		c0.35-0.33,0.96-0.5,1.83-0.5h3.82c0.33,0,0.49,0.14,0.49,0.41V33.15z"/>
	<path class="st2" d="M74.28,21.18h-1.3c-2.06,0-3.39,0.66-3.98,1.99h-0.16v-1.22c0-0.52-0.28-0.78-0.85-0.78h-3.45
		c-0.57,0-0.85,0.26-0.85,0.78v17.29c0,0.52,0.29,0.78,0.85,0.78h3.45c0.57,0,0.85-0.26,0.85-0.78V28.05c0-1.87,0.93-2.81,2.8-2.81
		h1.46c0.87,0,1.48,0.17,1.85,0.5c0.37,0.33,0.55,0.89,0.55,1.68v11.82c0,0.52,0.28,0.78,0.85,0.78h3.41c0.6,0,0.89-0.26,0.89-0.78
		V27.2C80.66,23.18,78.54,21.18,74.28,21.18z"/>
	<path class="st2" d="M104.23,26.83l7.72-9.71c0.22-0.25,0.29-0.45,0.22-0.61c-0.07-0.16-0.25-0.24-0.55-0.24h-3.98
		c-0.7,0-1.23,0.26-1.58,0.78l-6.18,8.24c-0.62,0.94-1.04,1.7-1.26,2.29h-0.08V17.04c0-0.52-0.28-0.78-0.85-0.78h-3.45
		c-0.57,0-0.85,0.26-0.85,0.78v22.2c0,0.52,0.28,0.78,0.85,0.78h3.45c0.57,0,0.85-0.26,0.85-0.78v-6.32l2.56-2.73l6.22,9.05
		c0.32,0.52,0.96,0.78,1.91,0.78h2.97c0.38,0,0.63-0.08,0.75-0.24c0.12-0.16,0.09-0.39-0.1-0.68L104.23,26.83z"/>
	<path class="st2" d="M130.89,21.18h-9.39c-2.14,0-3.79,0.52-4.96,1.55c-1.17,1.03-1.75,2.52-1.75,4.47v6.8
		c0,1.95,0.58,3.44,1.75,4.47c1.16,1.03,2.82,1.55,4.96,1.55h0.98c0.84,0,1.64-0.17,2.4-0.5c0.76-0.33,1.29-0.83,1.58-1.5h0.16v1.22
		c0,0.52,0.28,0.78,0.85,0.78h3.41c0.59,0,0.89-0.26,0.89-0.78V21.95C131.78,21.44,131.48,21.18,130.89,21.18z M126.62,33.15
		c0,1.87-0.93,2.81-2.8,2.81h-1.5c-0.87,0-1.48-0.17-1.83-0.5c-0.35-0.33-0.53-0.89-0.53-1.68v-6.35c0-0.79,0.18-1.35,0.53-1.68
		c0.35-0.33,0.96-0.5,1.83-0.5h3.82c0.33,0,0.49,0.14,0.49,0.41V33.15z"/>
	<path class="st2" d="M157.58,21.18h-1.18c-2.25,0-3.83,0.79-4.75,2.36c-1.03-1.58-2.72-2.36-5.08-2.36h-1.14
		c-1,0-1.89,0.18-2.66,0.55c-0.77,0.37-1.32,0.85-1.65,1.44h-0.16v-1.22c0-0.52-0.28-0.78-0.85-0.78h-3.45
		c-0.57,0-0.85,0.26-0.85,0.78v17.29c0,0.52,0.29,0.78,0.85,0.78h3.45c0.57,0,0.85-0.26,0.85-0.78V28.05c0-1.87,0.93-2.81,2.8-2.81
		h1.26c0.87,0,1.48,0.17,1.85,0.5c0.37,0.33,0.55,0.89,0.55,1.68v11.82c0,0.52,0.28,0.78,0.85,0.78h3.41c0.59,0,0.89-0.26,0.89-0.78
		V28.08c0-1.9,0.93-2.84,2.8-2.84h1.02c0.87,0,1.48,0.17,1.83,0.5c0.35,0.33,0.53,0.89,0.53,1.68v11.82c0,0.52,0.28,0.78,0.85,0.78
		h3.45c0.57,0,0.85-0.26,0.85-0.78V27.2c0-1.95-0.54-3.44-1.61-4.47S159.67,21.18,157.58,21.18z"/>
	<path class="st2" d="M198.21,21.18H195c-2.14,0-3.79,0.52-4.96,1.55c-1.17,1.03-1.75,2.52-1.75,4.47v6.8
		c0,1.95,0.58,3.44,1.75,4.47c1.16,1.03,2.82,1.55,4.96,1.55h8.98c0.32,0,0.55-0.06,0.67-0.17c0.12-0.11,0.18-0.3,0.18-0.57v-2.44
		c0-0.54-0.28-0.81-0.85-0.81h-8.21c-0.87,0-1.48-0.17-1.85-0.5c-0.37-0.33-0.55-0.88-0.55-1.64v-0.81c0-0.27,0.16-0.41,0.49-0.41
		h10.2c0.57,0,0.85-0.26,0.85-0.78V27.2c0-1.95-0.58-3.44-1.75-4.47S200.35,21.18,198.21,21.18z M199.84,29.12
		c0,0.27-0.15,0.41-0.45,0.41h-5.53c-0.3,0-0.45-0.13-0.45-0.41v-1.77c0-0.79,0.18-1.34,0.53-1.66c0.35-0.32,0.96-0.48,1.83-0.48
		h1.71c0.87,0,1.48,0.16,1.83,0.48c0.35,0.32,0.53,0.88,0.53,1.66V29.12z"/>
	<path class="st2" d="M218.94,21.18h-1.3c-2.06,0-3.39,0.66-3.98,1.99h-0.16v-1.22c0-0.52-0.28-0.78-0.85-0.78h-3.45
		c-0.57,0-0.85,0.26-0.85,0.78v17.29c0,0.52,0.29,0.78,0.85,0.78h3.45c0.57,0,0.85-0.26,0.85-0.78V28.05c0-1.87,0.93-2.81,2.8-2.81
		h1.46c0.87,0,1.48,0.17,1.85,0.5c0.37,0.33,0.55,0.89,0.55,1.68v11.82c0,0.52,0.28,0.78,0.85,0.78h3.41c0.6,0,0.89-0.26,0.89-0.78
		V27.2C225.32,23.18,223.19,21.18,218.94,21.18z"/>
	<path class="st2" d="M239.74,21.18h-1.3c-2.06,0-3.39,0.66-3.98,1.99h-0.16v-8.35c0-0.52-0.28-0.78-0.85-0.78h-3.45
		c-0.57,0-0.85,0.26-0.85,0.78v24.42c0,0.52,0.29,0.78,0.85,0.78h3.45c0.57,0,0.85-0.26,0.85-0.78V28.05c0-1.87,0.93-2.81,2.8-2.81
		h1.46c0.87,0,1.48,0.17,1.85,0.5c0.37,0.33,0.55,0.89,0.55,1.68v11.82c0,0.52,0.28,0.78,0.85,0.78h3.41c0.6,0,0.89-0.26,0.89-0.78
		V27.2C246.12,23.18,243.99,21.18,239.74,21.18z"/>
	<path class="st2" d="M259.86,21.18h-3.62c-2.14,0-3.79,0.52-4.96,1.55c-1.17,1.03-1.75,2.52-1.75,4.47v6.8
		c0,1.95,0.58,3.44,1.75,4.47c1.16,1.03,2.82,1.55,4.96,1.55h3.62c2.11,0,3.76-0.52,4.94-1.57c1.18-1.05,1.77-2.53,1.77-4.45v-6.8
		c0-1.92-0.59-3.4-1.77-4.45C263.61,21.7,261.97,21.18,259.86,21.18z M261.48,33.85c0,0.79-0.18,1.34-0.55,1.66
		c-0.37,0.32-0.98,0.48-1.85,0.48h-2.07c-0.87,0-1.48-0.16-1.83-0.48c-0.35-0.32-0.53-0.87-0.53-1.66v-6.5
		c0-0.79,0.18-1.34,0.53-1.66c0.35-0.32,0.96-0.48,1.83-0.48h2.07c0.87,0,1.48,0.16,1.85,0.48c0.37,0.32,0.55,0.88,0.55,1.66V33.85z
		"/>
	<path class="st2" d="M286.06,21.18h-3.41c-0.57,0-0.85,0.26-0.85,0.78v11.19c0,1.87-0.93,2.81-2.8,2.81h-1.5
		c-0.84,0-1.44-0.17-1.81-0.5c-0.37-0.33-0.55-0.89-0.55-1.68V21.95c0-0.52-0.28-0.78-0.85-0.78h-3.45c-0.57,0-0.85,0.26-0.85,0.78
		v12.04c0,1.95,0.54,3.44,1.61,4.47s2.65,1.55,4.73,1.55h1.34c0.84,0,1.64-0.17,2.4-0.5c0.76-0.33,1.29-0.83,1.58-1.5h0.16v1.22
		c0,0.52,0.28,0.78,0.85,0.78h3.41c0.59,0,0.89-0.26,0.89-0.78V21.95C286.96,21.44,286.66,21.18,286.06,21.18z"/>
	<path class="st2" d="M301.1,35.95h-1.62c-0.87,0-1.49-0.17-1.87-0.5c-0.38-0.33-0.57-0.88-0.57-1.64v-8.16
		c0-0.27,0.16-0.41,0.49-0.41h3.17c0.33,0,0.55-0.05,0.67-0.17c0.12-0.11,0.18-0.3,0.18-0.57v-2.55c0-0.52-0.28-0.78-0.85-0.78
		h-3.17c-0.33,0-0.49-0.14-0.49-0.41v-3.51c0-0.52-0.28-0.78-0.85-0.78h-3.41c-0.6,0-0.89,0.26-0.89,0.78v3.51
		c0,0.27-0.15,0.41-0.45,0.41h-1.62c-0.57,0-0.85,0.26-0.85,0.78v2.55c0,0.3,0.06,0.49,0.18,0.59c0.12,0.1,0.35,0.15,0.67,0.15h1.62
		c0.3,0,0.45,0.14,0.45,0.41v8.38c0,1.92,0.59,3.4,1.77,4.43s2.84,1.55,4.98,1.55h2.48c0.33,0,0.55-0.06,0.67-0.17
		c0.12-0.11,0.18-0.3,0.18-0.57v-2.55C301.95,36.21,301.67,35.95,301.1,35.95z"/>
	<path class="st2" d="M178.75,21.18h-1.67c-0.84,0-1.64,0.17-2.4,0.5c-0.76,0.33-1.29,0.83-1.58,1.5h-0.16v-1.22
		c0-0.52-0.28-0.78-0.85-0.78h-3.45c-0.57,0-0.85,0.26-0.85,0.78v16.36v5.99v10.33l2.58,3l2.58-3V44.3v-5.99v-0.3h0.16
		c0.3,0.67,0.83,1.16,1.58,1.5c0.76,0.33,1.56,0.5,2.4,0.5h1.67c2.09,0,3.66-0.52,4.73-1.55s1.61-2.52,1.61-4.47v-6.8
		c0-1.95-0.54-3.44-1.61-4.47S180.84,21.18,178.75,21.18z M179.93,33.77c0,0.79-0.18,1.35-0.55,1.68c-0.37,0.33-0.98,0.5-1.85,0.5
		h-1.79c-1.87,0-2.8-0.94-2.8-2.81v-5.1c0-1.87,0.93-2.81,2.8-2.81h1.79c0.87,0,1.48,0.17,1.85,0.5c0.37,0.33,0.55,0.89,0.55,1.68
		V33.77z"/>
</g>
<g>
	<path class="st2" d="M142.93,61.55h-1.26c-0.1,0-0.16,0.04-0.17,0.13l-4.04,17.09c-0.02,0.12,0.03,0.19,0.15,0.19h0.94
		c0.1,0,0.16-0.04,0.17-0.13l1.03-4.55h5.11l1.02,4.55c0.02,0.09,0.08,0.13,0.18,0.13h0.96c0.1,0,0.14-0.06,0.12-0.19l-4.03-17.09
		C143.08,61.6,143.02,61.55,142.93,61.55z M139.98,73.22l1.51-6.67c0.16-0.64,0.3-1.26,0.42-1.87s0.25-1.23,0.37-1.85h0.03
		c0.14,0.62,0.27,1.23,0.39,1.83s0.26,1.21,0.4,1.83l1.51,6.73H139.98z"/>
	<path class="st2" d="M155.94,75.91V60.97c0-0.11-0.05-0.16-0.15-0.16h-0.88c-0.12,0-0.18,0.05-0.18,0.16v5.75
		c-0.34-0.19-0.69-0.36-1.07-0.49c-0.48-0.16-0.99-0.24-1.54-0.24c-0.96,0-1.72,0.31-2.28,0.92c-0.57,0.61-0.85,1.58-0.85,2.91v5.98
		c0,1.19,0.21,2.04,0.64,2.55s1.03,0.77,1.81,0.77c0.68,0,1.3-0.19,1.86-0.57c0.51-0.35,1.02-0.82,1.53-1.4
		c0.01,0.11,0.01,0.21,0.02,0.34c0.03,0.47,0.05,0.91,0.07,1.32c0.02,0.11,0.08,0.16,0.18,0.16h0.79c0.1,0,0.14-0.06,0.12-0.19
		c-0.02-0.35-0.04-0.77-0.06-1.25S155.94,76.51,155.94,75.91z M153.38,77.48c-0.52,0.39-1.04,0.58-1.56,0.58s-0.93-0.17-1.2-0.51
		c-0.27-0.34-0.41-0.93-0.41-1.78v-5.82c0-1.06,0.2-1.82,0.6-2.26c0.4-0.44,0.92-0.66,1.56-0.66c0.71,0,1.5,0.27,2.37,0.78v8.35
		C154.28,76.69,153.82,77.14,153.38,77.48z"/>
	<path class="st2" d="M165.59,66.15c-0.08,0-0.13,0.05-0.15,0.16l-1.9,8.19c-0.14,0.53-0.26,1.07-0.37,1.62
		c-0.11,0.55-0.21,1.1-0.31,1.65h-0.03c-0.12-0.55-0.23-1.09-0.34-1.63c-0.11-0.54-0.22-1.08-0.34-1.61l-1.87-8.21
		c-0.02-0.11-0.08-0.16-0.18-0.16h-0.99c-0.1,0-0.14,0.07-0.12,0.21l3.07,12.44c0.02,0.11,0.07,0.16,0.15,0.16h1.23
		c0.1,0,0.16-0.05,0.17-0.16l3.04-12.44c0.04-0.14,0.01-0.21-0.09-0.21H165.59z"/>
	<path class="st2" d="M170.79,66.15h-0.91c-0.1,0-0.15,0.05-0.15,0.16v12.49c0,0.11,0.05,0.16,0.15,0.16h0.91
		c0.1,0,0.14-0.05,0.14-0.16V66.31C170.94,66.21,170.89,66.15,170.79,66.15z"/>
	<path class="st2" d="M170.35,61.71c-0.29,0-0.52,0.07-0.67,0.21c-0.16,0.14-0.23,0.34-0.23,0.58v0.19c0,0.27,0.08,0.47,0.23,0.61
		s0.38,0.21,0.67,0.21s0.51-0.07,0.66-0.21s0.22-0.35,0.22-0.61v-0.19c0-0.25-0.07-0.44-0.22-0.58
		C170.86,61.78,170.65,61.71,170.35,61.71z"/>
	<path class="st2" d="M178.07,65.99c-1.11,0-1.97,0.32-2.57,0.96s-0.91,1.66-0.91,3.06v4.89c0,1.44,0.3,2.5,0.89,3.19
		c0.59,0.69,1.49,1.04,2.7,1.04c1.05,0,1.85-0.29,2.38-0.86c0.54-0.58,0.79-1.42,0.77-2.54c0-0.11-0.05-0.16-0.15-0.16h-0.88
		c-0.1,0-0.14,0.06-0.12,0.19c0,0.76-0.16,1.34-0.48,1.73c-0.32,0.39-0.83,0.58-1.54,0.58c-0.82,0-1.42-0.26-1.81-0.78
		s-0.58-1.33-0.58-2.41v-2.23h5.55c0.12,0,0.18-0.05,0.18-0.16v-2.5c0-1.33-0.3-2.33-0.91-2.99
		C180.01,66.32,179.16,65.99,178.07,65.99z M180.32,71.6h-4.53v-1.59c0-0.99,0.19-1.74,0.58-2.23s0.96-0.74,1.7-0.74
		c0.74,0,1.3,0.25,1.68,0.74c0.38,0.5,0.57,1.24,0.57,2.23V71.6z"/>
	<path class="st2" d="M190.54,73.99c-0.24-0.48-0.69-0.95-1.33-1.41l-1.96-1.46c-0.47-0.37-0.8-0.72-1.01-1.05
		c-0.21-0.33-0.31-0.76-0.31-1.29c0-1.17,0.6-1.75,1.79-1.75c0.64,0,1.11,0.18,1.4,0.54s0.42,0.9,0.38,1.61
		c-0.02,0.09-0.01,0.14,0.03,0.16s0.07,0.03,0.09,0.03h0.91c0.1,0,0.15-0.05,0.15-0.16c0.08-1.05-0.13-1.84-0.63-2.39
		c-0.5-0.55-1.26-0.82-2.29-0.82c-0.94,0-1.67,0.24-2.19,0.73c-0.53,0.49-0.79,1.17-0.79,2.06c0,0.71,0.13,1.31,0.39,1.81
		c0.26,0.5,0.71,0.97,1.33,1.41l1.96,1.43c0.47,0.34,0.8,0.7,0.99,1.08c0.19,0.38,0.29,0.85,0.29,1.42c0,1.44-0.65,2.15-1.96,2.15
		c-0.72,0-1.23-0.22-1.52-0.65s-0.42-1.14-0.38-2.11c0-0.09-0.04-0.13-0.12-0.13h-0.94c-0.1,0-0.14,0.05-0.14,0.16
		c-0.08,1.24,0.13,2.18,0.64,2.82c0.51,0.64,1.32,0.96,2.43,0.96c1.03,0,1.82-0.27,2.35-0.81c0.54-0.54,0.8-1.34,0.8-2.41
		C190.91,75.11,190.79,74.47,190.54,73.99z"/>
</g>
</svg>
